<svg xmlns="http://www.w3.org/2000/svg" width="256" height="256" viewBox="0 0 256 256">
  <defs>
    <linearGradient id="g" x1="0" y1="0" x2="1" y2="1">
      <stop offset="0%" stop-color="#4f46e5"/>
      <stop offset="100%" stop-color="#06b6d4"/>
    </linearGradient>
  </defs>
  <rect width="256" height="256" rx="28" fill="url(#g)"/>
  <g fill="#fff" transform="translate(28,28)">
    <path d="M100 0c55 0 100 45 100 100s-45 100-100 100S0 155 0 100 45 0 100 0zm0 22C60 22 28 54 28 94s32 72 72 72 72-32 72-72S140 22 100 22z" opacity="0.2"/>
    <path d="M72 64h56a8 8 0 0 1 0 16H88v16h24a8 8 0 0 1 0 16H88v24a8 8 0 0 1-16 0V72a8 8 0 0 1 8-8z"/>
    <circle cx="140" cy="124" r="12"/>
  </g>
</svg>

